<svg xmlns="http://www.w3.org/2000/svg" xmlns:xlink="http://www.w3.org/1999/xlink"><symbol id="icon-education" viewBox="0 0 24 24"><path d="M20 12.875v5.068c0 2.754-5.789 4.057-9 4.057-3.052 0-9-1.392-9-4.057v-6.294l9 4.863 9-3.637zm-8.083-10.875l-12.917 5.75 12 6.5 11-4.417v7.167h2v-8.25l-12.083-6.75zm13.083 20h-4c.578-1 1-2.5 1-4h2c0 1.516.391 2.859 1 4z"/></symbol><symbol id="icon-facebook" viewBox="0 0 24 24">
<path d="M19 0h-14c-2.761 0-5 2.239-5 5v14c0 2.761 2.239 5 5 5h14c2.762 0 5-2.239 5-5v-14c0-2.761-2.238-5-5-5zm-3 7h-1.924c-.615 0-1.076.252-1.076.889v1.111h3l-.238 3h-2.762v8h-3v-8h-2v-3h2v-1.923c0-2.022 1.064-3.077 3.461-3.077h2.539v3z"/>
</symbol><symbol id="icon-github" viewBox="0 0 24 24">
<path d="M19 0h-14c-2.761 0-5 2.239-5 5v14c0 2.761 2.239 5 5 5h14c2.762 0 5-2.239 5-5v-14c0-2.761-2.238-5-5-5zm-4.466 19.59c-.405.078-.534-.171-.534-.384v-2.195c0-.747-.262-1.233-.55-1.481 1.782-.198 3.654-.875 3.654-3.947 0-.874-.312-1.588-.823-2.147.082-.202.356-1.016-.079-2.117 0 0-.671-.215-2.198.82-.64-.18-1.324-.267-2.004-.271-.68.003-1.364.091-2.003.269-1.528-1.035-2.2-.82-2.2-.82-.434 1.102-.16 1.915-.077 2.118-.512.56-.824 1.273-.824 2.147 0 3.064 1.867 3.751 3.645 3.954-.229.2-.436.552-.508 1.07-.457.204-1.614.557-2.328-.666 0 0-.423-.768-1.227-.825 0 0-.78-.01-.055.487 0 0 .525.246.889 1.17 0 0 .463 1.428 2.688.944v1.489c0 .211-.129.459-.528.385-3.18-1.057-5.472-4.056-5.472-7.59 0-4.419 3.582-8 8-8s8 3.581 8 8c0 3.533-2.289 6.531-5.466 7.59z"/>
</symbol><symbol id="icon-job" viewBox="0 0 24 24"><path d="M12.23 15.5c-6.801 0-10.367-1.221-12.23-2.597v9.097h24v-8.949c-3.218 2.221-9.422 2.449-11.77 2.449zm1.77 2.532c0 1.087-.896 1.968-2 1.968s-2-.881-2-1.968v-1.032h4v1.032zm-14-8.541v-2.491h24v2.605c0 5.289-24 5.133-24-.114zm9-7.491c-1.104 0-2 .896-2 2v2h2v-1.5c0-.276.224-.5.5-.5h5c.276 0 .5.224.5.5v1.5h2v-2c0-1.104-.896-2-2-2h-6z"/></symbol><symbol id="icon-linkedin" viewBox="0 0 24 24"><path d="M19 0h-14c-2.761 0-5 2.239-5 5v14c0 2.761 2.239 5 5 5h14c2.762 0 5-2.239 5-5v-14c0-2.761-2.238-5-5-5zm-11 19h-3v-11h3v11zm-1.5-12.268c-.966 0-1.75-.79-1.75-1.764s.784-1.764 1.75-1.764 1.75.79 1.75 1.764-.783 1.764-1.75 1.764zm13.5 12.268h-3v-5.604c0-3.368-4-3.113-4 0v5.604h-3v-11h3v1.765c1.396-2.586 7-2.777 7 2.476v6.759z"/></symbol><symbol id="icon-planet" viewBox="0 0 24 24"><path d="M12 0c-6.627 0-12 5.373-12 12s5.373 12 12 12 12-5.373 12-12-5.373-12-12-12zm9.567 9.098c-.059-.058-.127-.108-.206-.138-.258-.101-1.35.603-1.515.256-.108-.231-.327.148-.578.008-.121-.067-.459-.52-.611-.465-.312.112.479.974.694 1.087.203-.154.86-.469 1.002-.039.271.812-.745 1.702-1.264 2.171-.775.702-.63-.454-1.159-.86-.277-.213-.274-.667-.555-.824-.125-.071-.7-.732-.694-.821l-.017.167c-.095.072-.297-.27-.319-.325 0 .298.485.772.646 1.011.273.409.42 1.005.756 1.339.179.18.866.923 1.045.908l.921-.437c.649.154-1.531 3.237-1.738 3.619-.171.321.139 1.112.114 1.49-.029.437-.374.579-.7.817-.35.255-.268.752-.562.934-.521.321-.897 1.366-1.639 1.361-.219-.001-1.151.364-1.273.007-.095-.258-.223-.455-.356-.71-.131-.25-.015-.51-.175-.731-.11-.154-.479-.502-.513-.684-.002-.157.118-.632.283-.715.231-.118.044-.462.016-.663-.048-.357-.27-.652-.535-.859-.393-.302-.189-.542-.098-.974 0-.206-.126-.476-.402-.396-.57.166-.396-.445-.812-.417-.299.021-.543.211-.821.295-.349.104-.707-.083-1.053-.126-1.421-.179-1.885-1.804-1.514-2.976.037-.192-.115-.547-.048-.696.159-.352.485-.752.768-1.021.16-.152.365-.113.553-.231.29-.182.294-.558.578-.789.404-.328.956-.321 1.482-.392.281-.037 1.35-.268 1.518-.06 0 .039.193.611-.019.578.438.023 1.061.756 1.476.585.213-.089.135-.744.573-.427.265.19 1.45.275 1.696.07.152-.125.236-.939.053-1.031.117.116-.618.125-.686.099-.122-.044-.235.115-.43.025.117.055-.651-.358-.22-.674-.181.132-.349-.037-.544.109-.135.109.062.181-.13.277-.305.155-.535-.53-.649-.607-.118-.077-1.024-.713-.777-.298l.797.793c-.04.026-.209-.289-.209-.059.053-.136.02.585-.105.35-.056-.09.091-.14.006-.271 0-.085-.23-.169-.275-.228-.126-.157-.462-.502-.644-.585-.05-.024-.771.088-.832.111-.071.099-.131.203-.181.314-.149.055-.29.127-.423.216l-.159.356c-.068.061-.772.294-.776.303.03-.076-.492-.172-.457-.324.038-.167.215-.687.169-.877-.048-.199 1.085.287 1.158-.238.029-.227.047-.492-.316-.531.069.008.702-.249.807-.364.148-.169.486-.447.731-.447.286 0 .225-.417.356-.622.133.053-.071.38.088.512-.01-.104.45.057.494.033.105-.056.691-.023.601-.299-.101-.28.052-.197.183-.255-.02.008.248-.458.363-.456-.104-.089-.398.112-.516.103-.308-.024-.177-.525-.061-.672.09-.116-.246-.258-.25-.036-.006.332-.314.633-.243 1.075.109.666-.743-.161-.816-.115-.283.172-.515-.216-.368-.449.149-.238.51-.226.659-.48.104-.179.227-.389.388-.524.541-.454.689-.091 1.229-.042.526.048.178.125.105.327-.07.192.289.261.413.1.071-.092.232-.326.301-.499.07-.175.578-.2.527-.365 2.72 1.148 4.827 3.465 5.694 6.318zm-11.113-3.779l.068-.087.073-.019c.042-.034.086-.118.151-.104.043.009.146.095.111.148-.037.054-.066-.049-.081.101-.018.169-.188.167-.313.222-.087.037-.175-.018-.09-.104l.088-.108-.007-.049zm.442.245c.046-.045.138-.008.151-.094.014-.084.078-.178-.008-.335-.022-.042.116-.082.051-.137l-.109.032s.155-.668.364-.366l-.089.103c.135.134.172.47.215.687.127.066.324.078.098.192.117-.02-.618.314-.715.178-.072-.083.317-.139.307-.173-.004-.011-.317-.02-.265-.087zm1.43-3.547l-.356.326c-.36.298-1.28.883-1.793.705-.524-.18-1.647.667-1.826.673-.067.003.002-.641.36-.689-.141.021.993-.575 1.185-.805.678-.146 1.381-.227 2.104-.227l.326.017zm-5.086 1.19c.07.082.278.092-.026.288-.183.11-.377.809-.548.809-.51.223-.542-.439-1.109.413-.078.115-.395.158-.644.236.685-.688 1.468-1.279 2.327-1.746zm-5.24 8.793c0-.541.055-1.068.139-1.586l.292.185c.113.135.113.719.169.911.139.482.484.751.748 1.19.155.261.414.923.332 1.197.109-.179 1.081.824 1.259 1.033.418.492.74 1.088.061 1.574-.219.158.334 1.14.049 1.382l-.365.094c-.225.138-.235.397-.166.631-1.562-1.765-2.518-4.076-2.518-6.611zm14.347-5.823c.083-.01-.107.167-.107.167.033.256.222.396.581.527.437.157.038.455-.213.385-.139-.039-.854-.255-.879.025 0 .167-.679.001-.573-.175.073-.119.05-.387.186-.562.193-.255.38-.116.386.032-.001.394.398-.373.619-.399z"/></symbol><symbol id="icon-portfolio" viewBox="0 0 24 24"><path d="M24 10.935v2.131l-8 3.947v-2.23l5.64-2.783-5.64-2.79v-2.223l8 3.948zm-16 3.848l-5.64-2.783 5.64-2.79v-2.223l-8 3.948v2.131l8 3.947v-2.23zm7.047-10.783h-2.078l-4.011 16h2.073l4.016-16z"/></symbol><symbol id="icon-rocket" viewBox="0 0 24 24"><path d="M8.011 6.215c-1.711-.009-3.86.918-5.499 2.557-.625.625-1.176 1.355-1.601 2.174 1.479-1.119 3.057-1.47 4.903-.434.544-1.437 1.27-2.9 2.197-4.297zm9.785 9.773c-1.516.991-3.007 1.706-4.297 2.21 1.036 1.848.686 3.424-.434 4.902.819-.424 1.549-.975 2.175-1.602 1.644-1.642 2.572-3.796 2.556-5.51zm6.152-15.946c-.412-.028-.816-.042-1.213-.042-8.602 0-13.498 6.558-15.28 11.833l4.728 4.729c5.428-1.946 11.817-6.661 11.817-15.172 0-.439-.017-.888-.052-1.348zm-9.888 9.91c-.391-.391-.391-1.023 0-1.414s1.023-.391 1.414 0 .391 1.023 0 1.414-1.024.39-1.414 0zm2.828-2.828c-.781-.78-.781-2.047 0-2.828s2.048-.781 2.828 0c.781.781.781 2.047 0 2.828s-2.047.781-2.828 0zm-14.919 12.454l-.906-.906 5.208-5.188.906.906-5.208 5.188zm4.979 1.857l-.906-.906 3.636-3.664.906.906-3.636 3.664zm-6.042 2.565l-.906-.906 6.448-6.438.906.906-6.448 6.438z"/></symbol><symbol id="icon-skills-2"><path d="M15.517 24h-11.646c.522-3.035.897-6.162-.422-8.028-1.666-2.357-2.43-4.742-2.449-6.883-.045-5.19 4.231-9.114 10.203-9.089 7.236.03 9.328 6.156 9.773 7.943.34 1.369-.898 1.869-.166 2.702.596.679 1.035 1.364 1.789 2.177.292.315.405.646.401.943-.006.434-.291.798-.748.958-.429.15-.76.32-1.215.443-.145 1.16-.521 2.572-.798 3.557-.737 2.62-2.896 1.059-3.881 2.607-.426.668-.64 1.738-.841 2.67zm-4.293-8.316c.117-.001.23-.04.307-.109l.594-.391h-2.25l.594.391c.077.069.19.109.308.109h.447zm.922-1c.138-.001.25-.112.25-.25s-.112-.25-.25-.25h-2.279c-.138 0-.25.112-.25.25s.112.25.25.25h2.279zm.247-1c0-2.003 1.607-2.83 1.607-4.614 0-1.86-1.501-2.886-3.001-2.886s-2.999 1.024-2.999 2.886c0 1.784 1.607 2.639 1.607 4.614h2.786zm2.477-3.615l1.349.612-.413.911-1.299-.588c.151-.3.276-.608.363-.935zm-7.739 0c.087.332.208.631.36.935l-1.296.588-.414-.911 1.35-.612zm9.369-.885v-1h-1.594c.073.327.103.665.093 1h1.501zm-9.498 0v-.003c-.01-.334.02-.67.092-.997h-1.594v1h1.502zm7.02-2.714l1.242-.882.579.816-1.252.888c-.146-.291-.336-.566-.569-.822zm-6.044-.001c-.23.252-.418.525-.569.823l-1.251-.888.578-.816 1.242.881zm4.435-1.046l.663-1.345.897.443-.664 1.345c-.278-.184-.58-.332-.896-.443zm-2.826-.001c-.315.11-.618.258-.897.442l-.663-1.343.897-.443.663 1.344zm1.913-.208c-.334-.039-.654-.041-1-.001v-1.529h1v1.53z"/></symbol><symbol id="icon-skills"><path d="M15.517 24h-11.646c.522-3.035.897-6.162-.422-8.028-1.666-2.357-2.43-4.742-2.449-6.883-.045-5.19 4.231-9.114 10.203-9.089 7.236.03 9.328 6.156 9.773 7.943.34 1.369-.898 1.869-.166 2.702.596.679 1.035 1.364 1.789 2.177.292.315.405.646.401.943-.006.434-.291.798-.748.958-.429.15-.76.32-1.215.443-.145 1.16-.521 2.572-.798 3.557-.737 2.62-2.896 1.059-3.881 2.607-.426.668-.64 1.738-.841 2.67zm-3.844-19h-1.346c-.243.681-.312 1.122-.842 1.341-.53.22-.888-.041-1.545-.353l-.952.952c.311.654.573 1.015.353 1.545-.219.53-.66.599-1.341.841v1.347c.68.242 1.122.312 1.341.842.222.534-.047.902-.353 1.544l.952.952c.652-.309 1.015-.573 1.545-.353v.001c.529.219.599.657.842 1.341h1.346c.243-.682.313-1.121.845-1.343h.001c.526-.219.883.042 1.541.354l.952-.952c-.31-.651-.573-1.014-.354-1.544.219-.529.662-.6 1.342-.842v-1.347c-.688-.244-1.123-.313-1.341-.841-.22-.53.041-.89.353-1.545l-.952-.952c-.651.31-1.014.573-1.545.353-.529-.219-.598-.657-.842-1.341zm-.673 6.667c-.92 0-1.667-.747-1.667-1.667 0-.921.747-1.667 1.667-1.667s1.667.746 1.667 1.667c0 .92-.747 1.667-1.667 1.667z"/></symbol><symbol id="icon-user" viewBox="0 0 24 24"><path d="M20.822 18.096c-3.439-.794-6.641-1.49-5.09-4.418 4.719-8.912 1.251-13.678-3.732-13.678-5.081 0-8.464 4.949-3.732 13.678 1.597 2.945-1.725 3.641-5.09 4.418-2.979.688-3.178 2.143-3.178 4.663l.005 1.241h10.483l.704-3h1.615l.704 3h10.483l.005-1.241c.001-2.52-.198-3.975-3.177-4.663zm-8.231 1.904h-1.164l-.91-2h2.994l-.92 2z"/></symbol></svg>